<mxfile host="app.diagrams.net" agent="Mozilla/5.0 (Macintosh; Intel Mac OS X 10_15_7) AppleWebKit/537.36 (KHTML, like Gecko) Chrome/131.0.0.0 Safari/537.36" version="25.0.3">
  <diagram name="Page-1" id="7sFK0aNYZ-ZGJ6ULjUt4">
    <mxGraphModel dx="1194" dy="789" grid="1" gridSize="10" guides="1" tooltips="1" connect="1" arrows="1" fold="1" page="1" pageScale="1" pageWidth="850" pageHeight="1100" math="0" shadow="0">
      <root>
        <mxCell id="0" />
        <mxCell id="1" parent="0" />
        <mxCell id="QX3T-bH5H3SDwO8p83Fa-18" style="edgeStyle=orthogonalEdgeStyle;rounded=0;orthogonalLoop=1;jettySize=auto;html=1;entryX=1;entryY=0.5;entryDx=0;entryDy=0;entryPerimeter=0;" edge="1" parent="1" source="QX3T-bH5H3SDwO8p83Fa-14">
          <mxGeometry relative="1" as="geometry">
            <Array as="points">
              <mxPoint x="750" y="860" />
              <mxPoint x="750" y="560" />
            </Array>
            <mxPoint x="610" y="560" as="targetPoint" />
          </mxGeometry>
        </mxCell>
        <mxCell id="QX3T-bH5H3SDwO8p83Fa-26" style="edgeStyle=orthogonalEdgeStyle;rounded=0;orthogonalLoop=1;jettySize=auto;html=1;" edge="1" parent="1" source="QX3T-bH5H3SDwO8p83Fa-27" target="QX3T-bH5H3SDwO8p83Fa-29">
          <mxGeometry relative="1" as="geometry">
            <mxPoint x="810" y="520" as="targetPoint" />
          </mxGeometry>
        </mxCell>
        <mxCell id="QX3T-bH5H3SDwO8p83Fa-27" value="input n" style="shape=parallelogram;html=1;strokeWidth=2;perimeter=parallelogramPerimeter;whiteSpace=wrap;rounded=1;arcSize=12;size=0.23;" vertex="1" parent="1">
          <mxGeometry x="760" y="350" width="100" height="60" as="geometry" />
        </mxCell>
        <mxCell id="QX3T-bH5H3SDwO8p83Fa-28" style="edgeStyle=orthogonalEdgeStyle;rounded=0;orthogonalLoop=1;jettySize=auto;html=1;" edge="1" parent="1" source="QX3T-bH5H3SDwO8p83Fa-29" target="QX3T-bH5H3SDwO8p83Fa-32">
          <mxGeometry relative="1" as="geometry">
            <mxPoint x="810" y="660" as="targetPoint" />
          </mxGeometry>
        </mxCell>
        <mxCell id="QX3T-bH5H3SDwO8p83Fa-29" value="int&lt;div&gt;&amp;nbsp;count = 0&lt;/div&gt;&lt;div&gt;&amp;nbsp;num = 2&lt;/div&gt;&lt;div&gt;check = 0&lt;/div&gt;" style="rounded=1;whiteSpace=wrap;html=1;absoluteArcSize=1;arcSize=14;strokeWidth=2;" vertex="1" parent="1">
          <mxGeometry x="760" y="480" width="100" height="100" as="geometry" />
        </mxCell>
        <mxCell id="QX3T-bH5H3SDwO8p83Fa-30" style="edgeStyle=orthogonalEdgeStyle;rounded=0;orthogonalLoop=1;jettySize=auto;html=1;" edge="1" parent="1" source="QX3T-bH5H3SDwO8p83Fa-32" target="QX3T-bH5H3SDwO8p83Fa-34">
          <mxGeometry relative="1" as="geometry">
            <mxPoint x="810" y="800" as="targetPoint" />
          </mxGeometry>
        </mxCell>
        <mxCell id="QX3T-bH5H3SDwO8p83Fa-31" style="edgeStyle=orthogonalEdgeStyle;rounded=0;orthogonalLoop=1;jettySize=auto;html=1;entryX=0;entryY=0.5;entryDx=0;entryDy=0;entryPerimeter=0;" edge="1" parent="1" source="QX3T-bH5H3SDwO8p83Fa-32" target="QX3T-bH5H3SDwO8p83Fa-62">
          <mxGeometry relative="1" as="geometry">
            <mxPoint x="940" y="700" as="targetPoint" />
          </mxGeometry>
        </mxCell>
        <mxCell id="QX3T-bH5H3SDwO8p83Fa-32" value="count &amp;lt; n" style="strokeWidth=2;html=1;shape=mxgraph.flowchart.decision;whiteSpace=wrap;" vertex="1" parent="1">
          <mxGeometry x="760" y="650" width="100" height="100" as="geometry" />
        </mxCell>
        <mxCell id="QX3T-bH5H3SDwO8p83Fa-33" style="edgeStyle=orthogonalEdgeStyle;rounded=0;orthogonalLoop=1;jettySize=auto;html=1;" edge="1" parent="1" source="QX3T-bH5H3SDwO8p83Fa-34">
          <mxGeometry relative="1" as="geometry">
            <mxPoint x="930" y="840" as="targetPoint" />
          </mxGeometry>
        </mxCell>
        <mxCell id="QX3T-bH5H3SDwO8p83Fa-34" value="i = 2" style="rounded=1;whiteSpace=wrap;html=1;absoluteArcSize=1;arcSize=14;strokeWidth=2;" vertex="1" parent="1">
          <mxGeometry x="760" y="790" width="100" height="100" as="geometry" />
        </mxCell>
        <mxCell id="QX3T-bH5H3SDwO8p83Fa-35" style="edgeStyle=orthogonalEdgeStyle;rounded=0;orthogonalLoop=1;jettySize=auto;html=1;" edge="1" parent="1" source="QX3T-bH5H3SDwO8p83Fa-37" target="QX3T-bH5H3SDwO8p83Fa-42">
          <mxGeometry relative="1" as="geometry">
            <mxPoint x="980" y="960" as="targetPoint" />
          </mxGeometry>
        </mxCell>
        <mxCell id="QX3T-bH5H3SDwO8p83Fa-36" style="edgeStyle=orthogonalEdgeStyle;rounded=0;orthogonalLoop=1;jettySize=auto;html=1;entryX=0.5;entryY=0;entryDx=0;entryDy=0;entryPerimeter=0;" edge="1" parent="1" source="QX3T-bH5H3SDwO8p83Fa-37" target="QX3T-bH5H3SDwO8p83Fa-51">
          <mxGeometry relative="1" as="geometry">
            <mxPoint x="1200" y="930" as="targetPoint" />
          </mxGeometry>
        </mxCell>
        <mxCell id="QX3T-bH5H3SDwO8p83Fa-37" value="i &amp;lt;= sqrt (num)" style="strokeWidth=2;html=1;shape=mxgraph.flowchart.decision;whiteSpace=wrap;" vertex="1" parent="1">
          <mxGeometry x="930" y="790" width="100" height="100" as="geometry" />
        </mxCell>
        <mxCell id="QX3T-bH5H3SDwO8p83Fa-38" value="True" style="text;html=1;align=center;verticalAlign=middle;resizable=0;points=[];autosize=1;strokeColor=none;fillColor=none;" vertex="1" parent="1">
          <mxGeometry x="805" y="748" width="50" height="30" as="geometry" />
        </mxCell>
        <mxCell id="QX3T-bH5H3SDwO8p83Fa-39" value="False" style="text;html=1;align=center;verticalAlign=middle;resizable=0;points=[];autosize=1;strokeColor=none;fillColor=none;" vertex="1" parent="1">
          <mxGeometry x="855" y="680" width="50" height="30" as="geometry" />
        </mxCell>
        <mxCell id="QX3T-bH5H3SDwO8p83Fa-41" style="edgeStyle=orthogonalEdgeStyle;rounded=0;orthogonalLoop=1;jettySize=auto;html=1;" edge="1" parent="1" source="QX3T-bH5H3SDwO8p83Fa-42" target="QX3T-bH5H3SDwO8p83Fa-43">
          <mxGeometry relative="1" as="geometry">
            <mxPoint x="890" y="960" as="targetPoint" />
          </mxGeometry>
        </mxCell>
        <mxCell id="QX3T-bH5H3SDwO8p83Fa-42" value="num % i == 0" style="strokeWidth=2;html=1;shape=mxgraph.flowchart.decision;whiteSpace=wrap;" vertex="1" parent="1">
          <mxGeometry x="930" y="930" width="100" height="100" as="geometry" />
        </mxCell>
        <mxCell id="QX3T-bH5H3SDwO8p83Fa-43" value="check = 1" style="rounded=1;whiteSpace=wrap;html=1;absoluteArcSize=1;arcSize=14;strokeWidth=2;" vertex="1" parent="1">
          <mxGeometry x="760" y="930" width="100" height="100" as="geometry" />
        </mxCell>
        <mxCell id="QX3T-bH5H3SDwO8p83Fa-44" value="true" style="text;html=1;align=center;verticalAlign=middle;resizable=0;points=[];autosize=1;strokeColor=none;fillColor=none;" vertex="1" parent="1">
          <mxGeometry x="940" y="888" width="40" height="30" as="geometry" />
        </mxCell>
        <mxCell id="QX3T-bH5H3SDwO8p83Fa-45" value="true" style="text;html=1;align=center;verticalAlign=middle;resizable=0;points=[];autosize=1;strokeColor=none;fillColor=none;" vertex="1" parent="1">
          <mxGeometry x="880" y="948" width="40" height="30" as="geometry" />
        </mxCell>
        <mxCell id="QX3T-bH5H3SDwO8p83Fa-46" style="edgeStyle=orthogonalEdgeStyle;rounded=0;orthogonalLoop=1;jettySize=auto;html=1;entryX=1;entryY=0.5;entryDx=0;entryDy=0;entryPerimeter=0;" edge="1" parent="1" source="QX3T-bH5H3SDwO8p83Fa-42" target="QX3T-bH5H3SDwO8p83Fa-37">
          <mxGeometry relative="1" as="geometry">
            <Array as="points">
              <mxPoint x="1050" y="980" />
              <mxPoint x="1050" y="840" />
            </Array>
          </mxGeometry>
        </mxCell>
        <mxCell id="QX3T-bH5H3SDwO8p83Fa-47" value="False" style="text;html=1;align=center;verticalAlign=middle;resizable=0;points=[];autosize=1;strokeColor=none;fillColor=none;" vertex="1" parent="1">
          <mxGeometry x="1045" y="888" width="50" height="30" as="geometry" />
        </mxCell>
        <mxCell id="QX3T-bH5H3SDwO8p83Fa-48" value="False" style="text;html=1;align=center;verticalAlign=middle;resizable=0;points=[];autosize=1;strokeColor=none;fillColor=none;" vertex="1" parent="1">
          <mxGeometry x="1065" y="808" width="50" height="30" as="geometry" />
        </mxCell>
        <mxCell id="QX3T-bH5H3SDwO8p83Fa-49" style="edgeStyle=orthogonalEdgeStyle;rounded=0;orthogonalLoop=1;jettySize=auto;html=1;" edge="1" parent="1" source="QX3T-bH5H3SDwO8p83Fa-51" target="QX3T-bH5H3SDwO8p83Fa-53">
          <mxGeometry relative="1" as="geometry">
            <mxPoint x="1200" y="1020" as="targetPoint" />
          </mxGeometry>
        </mxCell>
        <mxCell id="QX3T-bH5H3SDwO8p83Fa-50" style="edgeStyle=orthogonalEdgeStyle;rounded=0;orthogonalLoop=1;jettySize=auto;html=1;entryX=1;entryY=0.5;entryDx=0;entryDy=0;" edge="1" parent="1" source="QX3T-bH5H3SDwO8p83Fa-51" target="QX3T-bH5H3SDwO8p83Fa-57">
          <mxGeometry relative="1" as="geometry">
            <Array as="points">
              <mxPoint x="1320" y="928" />
              <mxPoint x="1320" y="1430" />
            </Array>
          </mxGeometry>
        </mxCell>
        <mxCell id="QX3T-bH5H3SDwO8p83Fa-51" value="check == 0" style="strokeWidth=2;html=1;shape=mxgraph.flowchart.decision;whiteSpace=wrap;" vertex="1" parent="1">
          <mxGeometry x="1150" y="878" width="100" height="100" as="geometry" />
        </mxCell>
        <mxCell id="QX3T-bH5H3SDwO8p83Fa-52" style="edgeStyle=orthogonalEdgeStyle;rounded=0;orthogonalLoop=1;jettySize=auto;html=1;" edge="1" parent="1" source="QX3T-bH5H3SDwO8p83Fa-53" target="QX3T-bH5H3SDwO8p83Fa-56">
          <mxGeometry relative="1" as="geometry">
            <mxPoint x="1200" y="1100" as="targetPoint" />
          </mxGeometry>
        </mxCell>
        <mxCell id="QX3T-bH5H3SDwO8p83Fa-53" value="print num" style="shape=parallelogram;html=1;strokeWidth=2;perimeter=parallelogramPerimeter;whiteSpace=wrap;rounded=1;arcSize=12;size=0.23;" vertex="1" parent="1">
          <mxGeometry x="1150" y="1050" width="100" height="60" as="geometry" />
        </mxCell>
        <mxCell id="QX3T-bH5H3SDwO8p83Fa-54" value="True" style="text;html=1;align=center;verticalAlign=middle;resizable=0;points=[];autosize=1;strokeColor=none;fillColor=none;" vertex="1" parent="1">
          <mxGeometry x="1190" y="978" width="50" height="30" as="geometry" />
        </mxCell>
        <mxCell id="QX3T-bH5H3SDwO8p83Fa-55" style="edgeStyle=orthogonalEdgeStyle;rounded=0;orthogonalLoop=1;jettySize=auto;html=1;" edge="1" parent="1" source="QX3T-bH5H3SDwO8p83Fa-56" target="QX3T-bH5H3SDwO8p83Fa-57">
          <mxGeometry relative="1" as="geometry">
            <mxPoint x="1200" y="1260" as="targetPoint" />
          </mxGeometry>
        </mxCell>
        <mxCell id="QX3T-bH5H3SDwO8p83Fa-56" value="count++" style="rounded=1;whiteSpace=wrap;html=1;absoluteArcSize=1;arcSize=14;strokeWidth=2;" vertex="1" parent="1">
          <mxGeometry x="1150" y="1190" width="100" height="100" as="geometry" />
        </mxCell>
        <mxCell id="QX3T-bH5H3SDwO8p83Fa-57" value="num++" style="rounded=1;whiteSpace=wrap;html=1;absoluteArcSize=1;arcSize=14;strokeWidth=2;" vertex="1" parent="1">
          <mxGeometry x="1150" y="1380" width="100" height="100" as="geometry" />
        </mxCell>
        <mxCell id="QX3T-bH5H3SDwO8p83Fa-58" value="False" style="text;html=1;align=center;verticalAlign=middle;resizable=0;points=[];autosize=1;strokeColor=none;fillColor=none;" vertex="1" parent="1">
          <mxGeometry x="1250" y="860" width="50" height="30" as="geometry" />
        </mxCell>
        <mxCell id="QX3T-bH5H3SDwO8p83Fa-59" style="edgeStyle=orthogonalEdgeStyle;rounded=0;orthogonalLoop=1;jettySize=auto;html=1;entryX=0;entryY=0.5;entryDx=0;entryDy=0;entryPerimeter=0;" edge="1" parent="1" source="QX3T-bH5H3SDwO8p83Fa-57" target="QX3T-bH5H3SDwO8p83Fa-32">
          <mxGeometry relative="1" as="geometry" />
        </mxCell>
        <mxCell id="QX3T-bH5H3SDwO8p83Fa-61" style="edgeStyle=orthogonalEdgeStyle;rounded=0;orthogonalLoop=1;jettySize=auto;html=1;entryX=0.5;entryY=0;entryDx=0;entryDy=0;" edge="1" parent="1" source="QX3T-bH5H3SDwO8p83Fa-60" target="QX3T-bH5H3SDwO8p83Fa-27">
          <mxGeometry relative="1" as="geometry" />
        </mxCell>
        <mxCell id="QX3T-bH5H3SDwO8p83Fa-60" value="start" style="strokeWidth=2;html=1;shape=mxgraph.flowchart.start_1;whiteSpace=wrap;" vertex="1" parent="1">
          <mxGeometry x="760" y="220" width="100" height="60" as="geometry" />
        </mxCell>
        <mxCell id="QX3T-bH5H3SDwO8p83Fa-62" value="end" style="strokeWidth=2;html=1;shape=mxgraph.flowchart.start_1;whiteSpace=wrap;" vertex="1" parent="1">
          <mxGeometry x="1050" y="670" width="100" height="60" as="geometry" />
        </mxCell>
      </root>
    </mxGraphModel>
  </diagram>
</mxfile>
